<svg width="14" height="17" viewBox="0 0 17 24" fill="none" xmlns="http://www.w3.org/2000/svg">
<path d="M16.5061 6.41496L16.3741 5.74896C16.2551 5.15096 15.9861 4.58596 15.3731 4.36996C15.1761 4.30096 14.9531 4.27196 14.8031 4.12896C14.6511 3.98596 14.6071 3.76296 14.5721 3.55696C14.5071 3.17896 14.4471 2.80096 14.3801 2.42396C14.3231 2.09896 14.2781 1.73396 14.1301 1.43696C13.9351 1.03696 13.5331 0.802961 13.1341 0.648961C12.9293 0.57239 12.7203 0.507617 12.5081 0.454961C11.5081 0.191961 10.4581 0.0949609 9.43109 0.0389609C8.19786 -0.0288453 6.96136 -0.00812547 5.73109 0.100961C4.81609 0.183961 3.85109 0.284961 2.98109 0.600961C2.66309 0.716961 2.33509 0.856961 2.09309 1.10196C1.79609 1.40396 1.70009 1.87196 1.91609 2.24796C2.07009 2.51496 2.33109 2.70396 2.60809 2.82796C2.96809 2.98996 3.34509 3.11196 3.73109 3.19396C4.80609 3.43196 5.92009 3.52496 7.01809 3.56396C8.23609 3.61396 9.45509 3.57396 10.6681 3.44596C10.9671 3.41296 11.2661 3.37296 11.5641 3.32696C11.9161 3.27296 12.1421 2.81396 12.0381 2.49296C11.9141 2.10996 11.5811 1.96196 11.2041 2.01996C10.7381 2.09396 10.2441 2.12796 9.82209 2.16596C8.64509 2.24596 7.46409 2.24796 6.28609 2.17196C5.89956 2.14638 5.51376 2.1107 5.12909 2.06496C5.04309 2.05496 4.94909 2.03996 4.87109 2.02896C4.62809 1.99296 4.38709 1.94896 4.14709 1.89896C4.03609 1.87196 4.03609 1.71396 4.14709 1.68696H4.15209C4.42909 1.62696 4.70909 1.57896 4.99009 1.53996H4.99209C5.12309 1.53096 5.25509 1.50796 5.38609 1.49196C6.52402 1.37386 7.66869 1.33376 8.81209 1.37196C9.48609 1.39096 10.1591 1.43896 10.8291 1.51596L11.0571 1.54696C11.3241 1.58696 11.5901 1.63496 11.8551 1.69196C12.2471 1.77696 12.7501 1.80496 12.9251 2.23396C12.9801 2.37096 13.0051 2.52196 13.0361 2.66496L13.3551 4.14896C13.3619 4.18078 13.362 4.21365 13.3555 4.24553C13.349 4.27741 13.336 4.30761 13.3174 4.33425C13.2987 4.36089 13.2747 4.3834 13.247 4.40038C13.2193 4.41737 13.1883 4.42846 13.1561 4.43296H13.1531C13.1161 4.43896 13.0781 4.44296 13.0411 4.44796C11.4681 4.64865 9.8838 4.74719 8.29809 4.74296C6.7269 4.74134 5.1574 4.6398 3.59909 4.43896C3.45909 4.42196 3.30609 4.39696 3.18209 4.37896C2.85609 4.33096 2.53309 4.27096 2.20909 4.21796C1.81609 4.15296 1.44109 4.18596 1.08609 4.37896C0.796092 4.53896 0.559091 4.78296 0.411091 5.07996C0.257091 5.39596 0.212092 5.73996 0.144092 6.07996C0.0750916 6.41996 -0.0319084 6.78696 0.00909161 7.13596C0.0960916 7.88896 0.622092 8.50096 1.37909 8.63796C5.12256 9.30602 8.9426 9.43265 12.7221 9.01396C12.7939 9.00579 12.8666 9.01384 12.9349 9.03751C13.0032 9.06118 13.0653 9.09987 13.1166 9.15073C13.168 9.20159 13.2072 9.26333 13.2315 9.33138C13.2559 9.39944 13.2646 9.47208 13.2571 9.54396L13.1861 10.241L12.1681 20.148C12.1271 20.558 12.1211 20.98 12.0431 21.385C11.9211 22.022 11.4901 22.413 10.8611 22.556C10.2841 22.687 9.69609 22.756 9.10509 22.761C8.44909 22.765 7.79509 22.736 7.13909 22.739C6.44009 22.743 5.58309 22.679 5.04409 22.159C4.56909 21.701 4.50409 20.985 4.43909 20.366L3.70809 13.353L3.38609 10.259C3.34909 9.90796 3.10009 9.56396 2.70809 9.58096C2.37209 9.59596 1.99009 9.88096 2.03009 10.26L2.25809 12.445L3.20709 21.557C3.35409 22.901 4.38109 23.625 5.65309 23.829C6.39509 23.949 7.15609 23.973 7.91009 23.985C8.87609 24.001 9.85209 24.038 10.8021 23.863C12.2101 23.605 13.2671 22.665 13.4181 21.206C13.7581 17.874 14.1011 14.543 14.4421 11.211L14.6571 9.12396C14.6677 9.02047 14.7113 8.92314 14.7816 8.84641C14.8518 8.76968 14.9449 8.71762 15.0471 8.69796C15.4491 8.61996 15.8341 8.48596 16.1211 8.17996C16.5761 7.69196 16.6671 7.05596 16.5061 6.41396V6.41496ZM15.0281 7.18696C14.8831 7.32396 14.6651 7.38796 14.4501 7.41996C12.0341 7.77896 9.58409 7.95996 7.14209 7.87996C5.39409 7.81996 3.66509 7.62596 1.93509 7.38196C1.76509 7.35796 1.58209 7.32696 1.46509 7.20196C1.24509 6.96596 1.35409 6.49196 1.41109 6.20696C1.46309 5.94696 1.56309 5.59796 1.87409 5.56096C2.35809 5.50396 2.92009 5.70896 3.40009 5.78096C3.97709 5.86896 4.55609 5.93996 5.13709 5.99296C7.61709 6.21896 10.1391 6.18296 12.6091 5.85296C13.0591 5.79296 13.5081 5.72296 13.9541 5.64296C14.3531 5.57096 14.7941 5.43696 15.0341 5.84896C15.2001 6.12996 15.2221 6.50596 15.1961 6.82296C15.1882 6.9614 15.1278 7.0916 15.0271 7.18696H15.0281ZM8.86909 11.087C8.00709 11.457 7.02909 11.875 5.76009 11.875C5.2297 11.8737 4.70192 11.8007 4.19109 11.658L5.06809 20.662C5.13309 21.442 5.78509 22.042 6.56809 22.042C6.56809 22.042 7.81109 22.107 8.22609 22.107C8.67309 22.107 10.0121 22.042 10.0121 22.042C10.7951 22.042 11.4461 21.442 11.5111 20.662L12.4511 10.712C12.027 10.5586 11.58 10.4781 11.1291 10.474C10.3031 10.474 9.63809 10.758 8.86909 11.087V11.087Z" fill="black"/>
</svg>
