<svg width="18" height="18" viewBox="0 0 23 23" fill="none" xmlns="http://www.w3.org/2000/svg">
<path d="M23 18.5084C23 19.0247 22.8193 19.4635 22.4579 19.8249L19.8249 22.4579C19.4635 22.8193 19.0247 23 18.5084 23C17.9921 23 17.5533 22.8193 17.1919 22.4579L11.5 16.766L5.80808 22.4579C5.44669 22.8193 5.00786 23 4.49158 23C3.97531 23 3.53648 22.8193 3.17508 22.4579L0.542088 19.8249C0.180696 19.4635 0 19.0247 0 18.5084C0 17.9921 0.180696 17.5533 0.542088 17.1919L6.23401 11.5L0.542088 5.80808C0.180696 5.44669 0 5.00786 0 4.49158C0 3.97531 0.180696 3.53648 0.542088 3.17508L3.17508 0.542088C3.53648 0.180696 3.97531 0 4.49158 0C5.00786 0 5.44669 0.180696 5.80808 0.542088L11.5 6.23401L17.1919 0.542088C17.5533 0.180696 17.9921 0 18.5084 0C19.0247 0 19.4635 0.180696 19.8249 0.542088L22.4579 3.17508C22.8193 3.53648 23 3.97531 23 4.49158C23 5.00786 22.8193 5.44669 22.4579 5.80808L16.766 11.5L22.4579 17.1919C22.8193 17.5533 23 17.9921 23 18.5084Z" fill="white"/>
</svg>
