<svg width="18" height="18" viewBox="0 0 16 16" fill="white" xmlns="http://www.w3.org/2000/svg">
<path d="M5.14286 2.28686V0.571429C5.14286 0.419876 5.20306 0.274531 5.31023 0.167368C5.41739 0.060204 5.56273 0 5.71429 0H10.2857C10.4373 0 10.5826 0.060204 10.6898 0.167368C10.7969 0.274531 10.8571 0.419876 10.8571 0.571429V2.28686H15.4286C15.5801 2.28686 15.7255 2.34706 15.8326 2.45422C15.9398 2.56139 16 2.70673 16 2.85829C16 3.00984 15.9398 3.15518 15.8326 3.26235C15.7255 3.36951 15.5801 3.42971 15.4286 3.42971H0.571429C0.419876 3.42971 0.274531 3.36951 0.167368 3.26235C0.0602039 3.15518 0 3.00984 0 2.85829C0 2.70673 0.0602039 2.56139 0.167368 2.45422C0.274531 2.34706 0.419876 2.28686 0.571429 2.28686H5.14286ZM6.28571 2.28686H9.71429V1.144H6.28571V2.28686Z" />
<path d="M2.28572 16.0011C2.13417 16.0011 1.98883 15.9409 1.88166 15.8337C1.7745 15.7266 1.71429 15.5812 1.71429 15.4297V3.42969H14.2857V15.4297C14.2857 15.5812 14.2255 15.7266 14.1184 15.8337C14.0112 15.9409 13.8658 16.0011 13.7143 16.0011H2.28572ZM6.28572 12.5725C6.43728 12.5725 6.58262 12.5123 6.68978 12.4052C6.79695 12.298 6.85715 12.1527 6.85715 12.0011V6.28683C6.85715 6.13528 6.79695 5.98993 6.68978 5.88277C6.58262 5.77561 6.43728 5.7154 6.28572 5.7154C6.13417 5.7154 5.98883 5.77561 5.88166 5.88277C5.7745 5.98993 5.71429 6.13528 5.71429 6.28683V12.0011C5.71429 12.1527 5.7745 12.298 5.88166 12.4052C5.98883 12.5123 6.13417 12.5725 6.28572 12.5725ZM9.71429 12.5725C9.86585 12.5725 10.0112 12.5123 10.1184 12.4052C10.2255 12.298 10.2857 12.1527 10.2857 12.0011V6.28683C10.2857 6.13528 10.2255 5.98993 10.1184 5.88277C10.0112 5.77561 9.86585 5.7154 9.71429 5.7154C9.56274 5.7154 9.4174 5.77561 9.31023 5.88277C9.20307 5.98993 9.14287 6.13528 9.14287 6.28683V12.0011C9.14287 12.1527 9.20307 12.298 9.31023 12.4052C9.4174 12.5123 9.56274 12.5725 9.71429 12.5725Z" />
</svg>
