<svg width="13" height="8" viewBox="0 0 13 8" fill="none" xmlns="http://www.w3.org/2000/svg">
<path d="M2.60003 6.50003C2.60003 5.78205 2.01799 5.20002 1.30002 5.20002C0.582037 5.20002 0 5.78205 0 6.50003C0 7.21801 0.582037 7.80005 1.30002 7.80005C2.01799 7.80005 2.60003 7.21801 2.60003 6.50003Z" fill="var(--secondary_color)"/>
<path d="M13 6.50003C13 5.78205 12.418 5.20002 11.7 5.20002C10.982 5.20002 10.4 5.78205 10.4 6.50003C10.4 7.21801 10.982 7.80005 11.7 7.80005C12.418 7.80005 13 7.21801 13 6.50003Z" fill="var(--secondary_color)"/>
<path d="M2.60003 1.30008C2.60003 0.582103 2.01799 6.60419e-05 1.30002 6.60419e-05C0.582037 6.60419e-05 0 0.582103 0 1.30008C0 2.01806 0.582037 2.6001 1.30002 2.6001C2.01799 2.6001 2.60003 2.01806 2.60003 1.30008Z" fill="var(--secondary_color)"/>
<path d="M13 1.30008C13 0.582103 12.418 6.60419e-05 11.7 6.60419e-05C10.982 6.60419e-05 10.4 0.582103 10.4 1.30008C10.4 2.01806 10.982 2.6001 11.7 2.6001C12.418 2.6001 13 2.01806 13 1.30008Z" fill="var(--secondary_color)"/>
<path d="M7.79986 1.30008C7.79986 0.582103 7.21782 6.60419e-05 6.49984 6.60419e-05C5.78186 6.60419e-05 5.19983 0.582103 5.19983 1.30008C5.19983 2.01806 5.78186 2.6001 6.49984 2.6001C7.21782 2.6001 7.79986 2.01806 7.79986 1.30008Z" fill="var(--secondary_color)"/>
<path d="M7.79986 6.50003C7.79986 5.78205 7.21782 5.20002 6.49984 5.20002C5.78186 5.20002 5.19983 5.78205 5.19983 6.50003C5.19983 7.21801 5.78186 7.80005 6.49984 7.80005C7.21782 7.80005 7.79986 7.21801 7.79986 6.50003Z" fill="var(--secondary_color)"/>
</svg>
