<svg xmlns="http://www.w3.org/2000/svg" fill="white" width="18" height="18" data-name="Layer 1" viewBox="0 0 128 128"><path d="M66.84,91.17a5.7,5.7,0,0,1-5.68,0L41.89,80a5.68,5.68,0,0,1-2.83-4.91V52.87A5.68,5.68,0,0,1,41.89,48L61.16,36.83a5.7,5.7,0,0,1,5.68,0L77.48,43,54,56.73A2.57,2.57,0,0,0,52.69,59V69A2.57,2.57,0,0,0,54,71.27l8.73,5a2.58,2.58,0,0,0,2.58,0l39-22.54a8.91,8.91,0,0,0,4.45-7.71V44a10.18,10.18,0,0,0-5.09-8.82l-34.59-20a10.17,10.17,0,0,0-10.18,0l-34.59,20A10.18,10.18,0,0,0,19.23,44V84a10.18,10.18,0,0,0,5.09,8.82l34.59,20a10.17,10.17,0,0,0,10.18,0l34.59-20A10.18,10.18,0,0,0,108.77,84V67Z"/></svg>