<svg width="16" height="16" viewBox="0 0 15 15" fill="none" xmlns="http://www.w3.org/2000/svg">
<path fill-rule="evenodd" clip-rule="evenodd" d="M7.5 0C3.35625 0 0 3.35625 0 7.5C0 10.8187 2.14688 13.6219 5.12813 14.6156C5.50313 14.6812 5.64375 14.4562 5.64375 14.2594C5.64375 14.0812 5.63438 13.4906 5.63438 12.8625C3.75 13.2094 3.2625 12.4031 3.1125 11.9812C3.02812 11.7656 2.6625 11.1 2.34375 10.9219C2.08125 10.7812 1.70625 10.4344 2.33437 10.425C2.925 10.4156 3.34687 10.9687 3.4875 11.1937C4.1625 12.3281 5.24062 12.0094 5.67188 11.8125C5.7375 11.325 5.93438 10.9969 6.15 10.8094C4.48125 10.6219 2.7375 9.975 2.7375 7.10625C2.7375 6.29062 3.02813 5.61562 3.50625 5.09062C3.43125 4.90312 3.16875 4.13437 3.58125 3.10312C3.58125 3.10312 4.20937 2.90625 5.64375 3.87187C6.24375 3.70312 6.88125 3.61875 7.51875 3.61875C8.15625 3.61875 8.79375 3.70312 9.39375 3.87187C10.8281 2.89687 11.4563 3.10312 11.4563 3.10312C11.8688 4.13437 11.6062 4.90312 11.5312 5.09062C12.0094 5.61562 12.3 6.28125 12.3 7.10625C12.3 9.98437 10.5469 10.6219 8.87813 10.8094C9.15 11.0437 9.38438 11.4937 9.38438 12.1969C9.38438 13.2 9.375 14.0062 9.375 14.2594C9.375 14.4562 9.51562 14.6906 9.89062 14.6156C11.3795 14.1129 12.6732 13.156 13.5898 11.8796C14.5063 10.6032 14.9996 9.07143 15 7.5C15 3.35625 11.6438 0 7.5 0Z" fill="white"/>
</svg>
