<svg width="21" height="20" viewBox="0 0 21 20" fill="none" xmlns="http://www.w3.org/2000/svg">
<path d="M0 1.11111V18.8889C0 19.1836 0.122916 19.4662 0.341709 19.6746C0.560501 19.8829 0.857247 20 1.16667 20H19.8333C20.1428 20 20.4395 19.8829 20.6583 19.6746C20.8771 19.4662 21 19.1836 21 18.8889V1.11111C21 0.816426 20.8771 0.533811 20.6583 0.325437C20.4395 0.117063 20.1428 0 19.8333 0H1.16667C0.857247 0 0.560501 0.117063 0.341709 0.325437C0.122916 0.533811 0 0.816426 0 1.11111V1.11111ZM9.33333 4.44444H11.6667V6.66667H9.33333V4.44444ZM9.33333 8.88889H11.6667V15.5556H9.33333V8.88889Z" fill="#8B90FF"/>
</svg>
