<svg width="20" height="19" viewBox="0 0 20 19" fill="none" xmlns="http://www.w3.org/2000/svg">
<rect x="1" y="4" width="18" height="14" fill="#3B40C1"/>
<path d="M1.751 2.962L9.648 0L10.351 1.873L7.516 2.937H18C18.5304 2.937 19.0391 3.14771 19.4142 3.52279C19.7893 3.89786 20 4.40657 20 4.937V16.937C20 17.4674 19.7893 17.9761 19.4142 18.3512C19.0391 18.7263 18.5304 18.937 18 18.937H2C1.46957 18.937 0.96086 18.7263 0.585787 18.3512C0.210714 17.9761 0 17.4674 0 16.937V4.937C0 3.917 0.765999 3.086 1.751 2.962ZM12 14.937H16V12.937H12V14.937ZM5.5 15.937C6.16304 15.937 6.79893 15.6736 7.26777 15.2048C7.73661 14.7359 8 14.1 8 13.437C8 12.774 7.73661 12.1381 7.26777 11.6692C6.79893 11.2004 6.16304 10.937 5.5 10.937C4.83696 10.937 4.20107 11.2004 3.73223 11.6692C3.26339 12.1381 3 12.774 3 13.437C3 14.1 3.26339 14.7359 3.73223 15.2048C4.20107 15.6736 4.83696 15.937 5.5 15.937ZM2 8.937H18V4.937H2V8.937Z" fill="var(--primary_color)"/>
</svg>
