<svg width="22" height="20" viewBox="0 0 20 16" fill="black" xmlns="http://www.w3.org/2000/svg">
<path d="M11 12.493C11 14.427 12.573 16 14.507 16C16.441 16 18.014 14.427 18.014 12.493C18.014 12.316 17.987 12.146 17.961 11.976H18V2H20V0H17C16.7348 0 16.4804 0.105357 16.2929 0.292893C16.1054 0.48043 16 0.734784 16 1V9.333C15.5344 9.10767 15.0243 8.98945 14.507 8.987C13.5773 8.98779 12.6859 9.3574 12.0284 10.0147C11.3709 10.672 11.0011 11.5633 11 12.493ZM0 1H14V3H0V1Z" />
<path d="M0 5H14V7H0V5ZM0 9H9V11H0V9ZM0 13H9V15H0V13Z" />
</svg>
