<svg width="16" height="20" viewBox="0 0 16 20" fill="none" xmlns="http://www.w3.org/2000/svg">
<path d="M15.9834 0.619874H15.9753C15.9565 0.449719 15.8757 0.29246 15.7483 0.17812C15.6208 0.0637807 15.4558 0.000371561 15.2846 0C15.157 0 15.0396 0.0364433 14.9367 0.0961698L14.9303 0.0853719L8.02529 4.0722V4.07625L5.41352 5.58426H0.527078V5.59776C0.522692 5.59776 0.51898 5.59641 0.514593 5.59641C0.23047 5.59641 0 5.82722 0 6.111V13.0825C0 13.3666 0.230807 13.5967 0.514593 13.5967C0.51898 13.5967 0.522692 13.5957 0.527078 13.5954V13.6092H5.41352L9.30215 15.8542V15.8437L14.8864 19.0679C14.9911 19.1407 15.1138 19.1834 15.241 19.1914C15.3683 19.1994 15.4953 19.1725 15.6083 19.1134C15.7213 19.0544 15.816 18.9656 15.8822 18.8565C15.9483 18.7475 15.9833 18.6225 15.9834 18.495C15.9834 18.4676 15.9784 18.4427 15.9753 18.4164H15.9834V0.619874Z" fill="var(--secondary_color)"/>
</svg>
