<svg width="19" height="19" viewBox="0 0 19 19" fill="none" xmlns="http://www.w3.org/2000/svg">
<path d="M4.76895 11.7593L4.86048 11.3383L4.54286 11.0471L0.957422 7.76048C0.807738 7.60366 0.713017 7.32109 0.762903 6.91285C0.87538 6.6998 1.10592 6.51522 1.32482 6.45H1.33607H1.37585L1.41541 6.44579L6.11541 5.94579L6.54676 5.8999L6.72208 5.50312L8.5303 1.41085C8.60707 1.33572 8.65951 1.25517 8.69439 1.18541C8.70662 1.16095 8.7171 1.13705 8.7261 1.11404C8.90798 0.857908 9.15299 0.75 9.33607 0.75C9.43942 0.75 9.51542 0.780823 9.56312 0.819586C9.60224 0.851369 9.66758 0.92391 9.69361 1.10607L9.7856 1.75H10.0033L11.7501 5.70312L11.9254 6.0999L12.3567 6.14579L17.0567 6.64579L17.0963 6.65H17.1361H17.1645C17.4339 6.71177 17.626 6.89431 17.7397 7.17854C17.8347 7.41597 17.7817 7.69373 17.6057 7.86967L18.1361 8.4L17.6057 7.86967L17.5205 7.95495L15.636 9.64107L15.6205 9.65495L15.6057 9.66967C14.9857 10.2897 14.4323 10.8403 14.0861 11.1L13.7009 11.3889L13.8032 11.8593L14.7988 16.4393C14.856 16.8123 14.7161 17.0574 14.5502 17.1569L14.517 17.1768L14.4861 17.2C14.3883 17.2733 14.1702 17.3236 13.9007 17.2621C13.8396 17.2085 13.7771 17.1695 13.7215 17.1417C13.6853 17.1236 13.6503 17.1093 13.6177 17.098L9.60301 14.8459L9.23607 14.64L8.86913 14.8459L4.76913 17.1459L4.58735 17.2479C4.55077 17.2496 4.50434 17.25 4.43607 17.25C4.28493 17.25 4.19392 17.1972 4.1664 17.1697L4.10111 17.1044L4.02194 17.0569C3.85606 16.9574 3.71616 16.7123 3.77331 16.3393L4.76895 11.7593Z" stroke="white" stroke-width="1.5"/>
</svg>
