<svg width="19" height="19" viewBox="0 0 19 19" fill="#D070FF" xmlns="http://www.w3.org/2000/svg">
<path d="M0.436068 8.3L4.03607 11.6L3.03607 16.2C2.93607 16.8 3.13607 17.4 3.63607 17.7C3.83607 17.9 4.13607 18 4.43607 18C4.63607 18 4.83607 18 5.03607 17.9C5.03607 17.9 5.13607 17.9 5.13607 17.8L9.23607 15.5L13.3361 17.8C13.3361 17.8 13.4361 17.8 13.4361 17.9C13.9361 18.1 14.5361 18.1 14.9361 17.8C15.4361 17.5 15.6361 16.9 15.5361 16.3L14.5361 11.7C14.9361 11.4 15.5361 10.8 16.1361 10.2L18.0361 8.5L18.1361 8.4C18.5361 8 18.6361 7.4 18.4361 6.9C18.2361 6.4 17.8361 6 17.2361 5.9H17.1361L12.4361 5.4L10.5361 1.1C10.5361 1.1 10.5361 1 10.4361 1C10.3361 0.3 9.83607 0 9.33607 0C8.83607 0 8.33607 0.3 8.03607 0.8C8.03607 0.8 8.03607 0.9 7.93607 0.9L6.03607 5.2L1.33607 5.7H1.23607C0.736068 5.8 0.236068 6.2 0.036068 6.7C-0.063932 7.3 0.0360678 7.9 0.436068 8.3V8.3Z" />
</svg>
