<svg width="20" height="14" viewBox="0 0 23 16" fill="#F00925" xmlns="http://www.w3.org/2000/svg">
<path d="M22.6286 3.50476C22.6286 3.50476 22.4 1.90476 21.7143 1.21905C20.8762 0.304762 19.8857 0.304762 19.4286 0.228572C16.2286 1.36239e-07 11.4286 0 11.4286 0C11.4286 0 6.62857 1.36239e-07 3.42857 0.228572C2.97143 0.304762 1.98095 0.304762 1.14286 1.21905C0.457143 1.90476 0.228572 3.50476 0.228572 3.50476C0.228572 3.50476 0 5.33333 0 7.1619V8.8381C0 10.6667 0.228572 12.5714 0.228572 12.5714C0.228572 12.5714 0.457143 14.1714 1.14286 14.8571C1.98095 15.7714 3.12381 15.7714 3.65714 15.8476C5.48571 15.9238 11.4286 16 11.4286 16C11.4286 16 16.2286 16 19.4286 15.7714C19.8857 15.6952 20.8762 15.6952 21.7143 14.781C22.4 14.0952 22.6286 12.4952 22.6286 12.4952C22.6286 12.4952 22.8571 10.6667 22.8571 8.8381V7.1619C22.8571 5.33333 22.6286 3.50476 22.6286 3.50476V3.50476ZM9.06667 10.9714V4.57143L15.2381 7.77143L9.06667 10.9714V10.9714Z" />
</svg>
